<mxfile host="app.diagrams.net" agent="Mozilla/5.0 (Macintosh; Intel Mac OS X 10_15_7) AppleWebKit/537.36 (KHTML, like Gecko) Chrome/125.0.0.0 Safari/537.36" version="24.7.5">
  <diagram name="第 1 页" id="joYnWlq2aa4wjq3Gv_jH">
    <mxGraphModel dx="1562" dy="833" grid="1" gridSize="10" guides="1" tooltips="1" connect="1" arrows="1" fold="1" page="1" pageScale="1" pageWidth="827" pageHeight="1169" math="0" shadow="0">
      <root>
        <mxCell id="0" />
        <mxCell id="1" parent="0" />
        <mxCell id="JqVwm08oiALtkmtzPvGm-1" value="" style="rounded=1;whiteSpace=wrap;html=1;" vertex="1" parent="1">
          <mxGeometry x="10" y="10" width="540" height="240" as="geometry" />
        </mxCell>
        <mxCell id="JqVwm08oiALtkmtzPvGm-2" value="" style="image;html=1;image=img/lib/clip_art/people/Suit_Man_Blue_128x128.png" vertex="1" parent="1">
          <mxGeometry x="20" y="20" width="110" height="100" as="geometry" />
        </mxCell>
        <mxCell id="JqVwm08oiALtkmtzPvGm-3" value="&lt;font style=&quot;font-size: 25px;&quot;&gt;请帮我查询苹果公司现在的股价。&lt;/font&gt;" style="text;html=1;align=center;verticalAlign=middle;whiteSpace=wrap;rounded=0;fontSize=30;" vertex="1" parent="1">
          <mxGeometry x="144" y="53" width="381" height="30" as="geometry" />
        </mxCell>
        <mxCell id="JqVwm08oiALtkmtzPvGm-4" value="&lt;font style=&quot;font-size: 25px;&quot;&gt;查询股价&lt;/font&gt;" style="text;html=1;align=center;verticalAlign=middle;whiteSpace=wrap;rounded=0;fontSize=30;" vertex="1" parent="1">
          <mxGeometry x="169" y="140" width="350" height="30" as="geometry" />
        </mxCell>
        <mxCell id="JqVwm08oiALtkmtzPvGm-5" value="&lt;font style=&quot;font-size: 25px;&quot;&gt;时间：现在；上市公司：苹果&lt;/font&gt;" style="text;html=1;align=center;verticalAlign=middle;whiteSpace=wrap;rounded=0;fontSize=30;" vertex="1" parent="1">
          <mxGeometry x="169" y="200" width="350" height="30" as="geometry" />
        </mxCell>
        <mxCell id="JqVwm08oiALtkmtzPvGm-6" value="&lt;font style=&quot;font-size: 25px;&quot;&gt;意图&lt;/font&gt;" style="text;html=1;align=center;verticalAlign=middle;whiteSpace=wrap;rounded=0;fontSize=30;" vertex="1" parent="1">
          <mxGeometry x="40" y="140" width="76" height="30" as="geometry" />
        </mxCell>
        <mxCell id="JqVwm08oiALtkmtzPvGm-7" value="&lt;font style=&quot;font-size: 25px;&quot;&gt;槽位&lt;/font&gt;" style="text;html=1;align=center;verticalAlign=middle;whiteSpace=wrap;rounded=0;fontSize=30;" vertex="1" parent="1">
          <mxGeometry x="40" y="200" width="76" height="30" as="geometry" />
        </mxCell>
      </root>
    </mxGraphModel>
  </diagram>
</mxfile>
